PathFileType	4	(X/Y/Z)	D:\TRACE\v60_Jaco2_6-2-23\JustBodyDRS_Motion3_1-platform.trc
DataRate	CameraRate	NumFrames	NumMarkers	Units	OrigDataRate	OrigDataStartFrame	OrigNumFrames
100.00	100.00	      74	5	mm	100.00	1751	      7000
Frame#	Time	Left_Front			Right_Front			Left_Aft			Right_Aft			Post			
		X1	Y1	Z1	X2	Y2	Z2	X3	Y3	Z3	X4	Y4	Z4	X5	Y5	Z5	

1751	17.500	-799.46527	10.81756	-650.42920	771.63434	8.78876	-628.06744	-730.29364	10.28392	483.12808	684.32007	8.13961	588.59137	-3.15120	1308.58643	-962.34015	
1752	17.510	-799.21606	10.74657	-650.93262	771.54913	8.61150	-628.07318	-730.33118	10.28182	483.13306	684.21106	8.18624	588.61237	-3.18477	1308.57703	-962.45660	
1753	17.520	-799.25543	10.74367	-650.78046	771.43542	8.62837	-628.05811	-730.37671	10.19770	483.19177	684.14929	8.20490	588.59808	-3.13429	1308.43372	-962.41174	
1754	17.530	-799.54272	10.90497	-650.26001	771.40796	8.66195	-628.01013	-730.40430	10.23343	483.17889	684.11975	8.16405	588.60437	-3.07022	1308.41345	-962.42712	
1755	17.540	-799.50580	10.86437	-650.29620	771.43225	8.66684	-628.01770	-730.35352	10.20221	483.20450	684.06915	8.18565	588.61688	-3.15693	1308.50708	-962.39417	
1756	17.550	-799.69574	10.93585	-650.38690	771.35876	8.61895	-628.04553	-730.42480	10.22675	483.14594	684.02393	8.14723	588.60443	-3.27706	1308.55042	-962.46088	
1757	17.560	-799.38861	10.72834	-650.94440	771.34930	8.66498	-628.04822	-730.44159	10.17089	483.14490	684.02283	8.15839	588.61365	-3.30543	1308.59912	-962.41003	
1758	17.570	-799.47736	10.80810	-650.89221	771.23395	8.70377	-627.99182	-730.52277	10.15619	483.17422	683.99854	8.10468	588.63208	-3.23775	1308.53235	-962.32770	
1759	17.580	-799.40179	10.71635	-650.79797	771.22418	8.65521	-627.96478	-730.59155	10.10069	483.19797	683.75793	7.89642	588.51953	-3.29468	1308.58191	-962.27222	
1760	17.590	-799.69482	10.86771	-650.38519	771.18414	8.65772	-627.95105	-730.54578	10.05334	483.22064	683.34473	7.86490	588.64874	-3.28759	1308.57251	-962.16040	
1761	17.600	-799.42438	10.75292	-650.77765	771.11884	8.72449	-627.96918	-730.61511	10.19061	483.25275	683.49561	7.94265	588.63074	-3.31966	1308.66199	-962.14233	
1762	17.610	-799.58484	10.89809	-650.92712	771.11914	8.76528	-627.94135	-730.88745	10.62729	482.93301	683.58636	7.97180	588.58789	-3.36766	1308.74744	-962.05652	
1763	17.620	-799.88788	10.97219	-650.64063	771.16522	8.74655	-627.96021	-730.88770	10.50391	482.94913	683.04382	7.27515	588.17920	-3.36054	1308.70557	-961.99902	
1764	17.630	-799.82428	10.99363	-650.52649	771.08136	8.75221	-627.92889	-730.88416	10.43768	483.01880	683.27386	7.59526	588.54651	-3.33269	1308.75464	-961.94690	
1765	17.640	-799.85510	11.09131	-650.33325	771.12067	8.82547	-627.94507	-730.93909	10.46351	483.04489	683.47510	7.82808	588.60699	-3.31226	1308.78894	-961.93689	
1766	17.650	-799.79413	11.01886	-650.46753	771.10870	8.92579	-627.90326	-730.93207	10.43495	483.03665	683.51312	7.88954	588.69623	-3.36966	1308.94788	-961.86389	
1767	17.660	-799.91168	11.06384	-650.64032	771.11316	8.98811	-627.90344	-730.75195	10.03073	483.23093	683.36053	7.85820	588.72235	-3.41613	1309.11084	-961.92889	
1768	17.670	-799.93842	11.01430	-650.79395	770.97681	9.05881	-628.02710	-730.81494	9.94857	483.28470	683.24036	7.73280	588.71490	-3.53726	1309.19531	-961.84039	
1769	17.680	-799.91193	11.12289	-650.55688	770.89325	9.11095	-628.02594	-730.89679	9.87734	483.37311	683.13831	7.61418	588.78052	-3.48773	1309.26392	-961.72723	
1770	17.690	-799.90076	11.12489	-650.62421	770.88110	9.16881	-628.03363	-730.95428	9.85732	483.36386	683.12842	7.56739	588.78955	-3.50971	1309.32263	-961.58191	
1771	17.700	-799.85999	11.11568	-650.69189	770.90375	9.29013	-628.02551	-731.05566	9.87494	483.39764	683.17896	7.53583	588.80737	-3.60704	1309.34814	-961.43317	
1772	17.710	-799.93994	11.11376	-650.71521	770.93756	9.36786	-628.00385	-731.12109	9.94605	483.44574	683.23975	7.50565	588.83997	-3.69518	1309.46387	-961.19513	
1773	17.720	-799.93927	11.11975	-650.71252	770.90747	9.37701	-627.99109	-730.96857	9.85944	483.41095	683.20142	7.50095	588.82898	-3.75037	1309.57751	-960.79150	
1774	17.730	-799.93134	11.12898	-650.64301	770.88434	9.40647	-628.02551	-731.00854	9.83191	483.39383	683.22601	7.48608	588.85754	-3.66083	1309.60339	-960.35474	
1775	17.740	-799.89319	11.11163	-650.71692	770.85175	9.48689	-628.04999	-731.01575	9.82034	483.36209	683.23151	7.46941	588.86877	-3.56589	1309.63538	-960.18475	
1776	17.750	-799.86426	11.11479	-650.84033	770.84277	9.58546	-628.01764	-731.01471	9.83381	483.34329	683.17371	7.47679	588.86035	-3.55916	1309.65393	-960.05933	
1777	17.760	-799.89209	11.10426	-650.89569	770.97064	9.52607	-627.99396	-730.94604	9.86327	483.41238	683.19794	7.41543	589.01685	-3.57537	1309.75720	-960.07428	
1778	17.770	-799.95093	11.12861	-650.60614	770.95056	9.44222	-627.98865	-730.96655	9.85212	483.39865	683.24304	7.41342	588.91486	-3.56288	1309.86584	-960.15289	
1779	17.780	-799.90485	11.12191	-650.62152	770.90863	9.54103	-628.01575	-731.07727	9.78984	483.42102	683.21643	7.43233	588.91254	-3.49151	1309.78577	-960.22833	
1780	17.790	-799.71381	11.23232	-650.61627	770.85040	9.65310	-627.97327	-731.10413	9.75571	483.45078	683.09204	7.46285	588.73376	-3.64868	1309.81152	-960.37256	
1781	17.800	-799.71698	11.29936	-650.66278	770.85645	9.78404	-627.93842	-731.04041	9.73590	483.47314	683.36346	7.51102	589.00092	-3.74373	1309.93738	-960.59766	
1782	17.810	-799.75012	11.36358	-650.73267	770.90686	9.79114	-627.94440	-731.02130	9.73295	483.48181	683.37262	7.60438	588.99298	-3.87324	1310.08069	-960.60956	
1783	17.820	-799.76593	11.36682	-650.74170	770.99451	9.91508	-627.86707	-730.98151	9.73720	483.40891	683.41156	7.62219	588.90454	-3.90763	1310.15356	-960.52954	
1784	17.830	-799.83960	11.29835	-650.67487	770.89313	9.77215	-627.96539	-731.03790	9.68558	483.44077	683.27185	7.27779	589.13306	-3.65264	1310.09668	-960.24622	
1785	17.840	-799.78265	11.26665	-650.71234	770.85144	9.73088	-627.97931	-731.07928	9.67231	483.50903	683.19092	7.28294	589.13751	-3.51690	1310.02734	-959.94598	
1786	17.850	-799.68695	11.35149	-650.59528	770.86761	9.83754	-627.96869	-731.04065	9.63310	483.61145	683.25110	7.27001	589.15363	-3.56095	1310.03186	-959.76984	
1787	17.860	-799.67834	11.31023	-650.63885	770.89075	9.90312	-627.91614	-731.03394	9.66306	483.63785	683.25226	7.26629	589.13635	-3.62893	1310.16443	-959.63470	
1788	17.870	-799.71686	11.36846	-650.69849	770.97479	9.98326	-627.87573	-731.09668	9.69469	483.60965	683.25153	7.29601	589.14020	-3.59650	1310.20276	-959.49652	
1789	17.880	-799.81622	11.40592	-650.85333	770.96997	9.83552	-627.89978	-731.15222	9.70172	483.55835	683.22504	7.27547	589.15948	-3.66043	1310.20642	-959.42950	
1790	17.890	-799.82819	11.35452	-650.77600	770.89642	9.81918	-627.93359	-731.22913	9.71706	483.60913	683.25220	7.22289	589.20563	-3.64272	1310.19946	-959.44525	
1791	17.900	-799.73340	11.34169	-650.54340	770.82953	9.89348	-627.93933	-731.17493	9.67687	483.71353	683.26801	7.20257	589.20844	-3.60975	1310.14868	-959.43616	
1792	17.910	-799.60071	11.37328	-650.49854	770.88940	9.95752	-627.91565	-731.14990	9.66299	483.70660	683.27460	7.21609	589.20477	-3.57380	1310.17480	-959.53345	
1793	17.920	-799.63043	11.40931	-650.55963	771.03497	10.01536	-627.85974	-731.03223	9.69717	483.64575	683.32513	7.19962	589.21332	-3.56020	1310.27795	-959.68591	
1794	17.930	-799.70819	11.50400	-650.72778	771.13947	9.98822	-627.82947	-731.01031	9.70409	483.50262	683.36853	7.20806	589.21753	-3.58164	1310.34619	-959.87439	
1795	17.940	-799.62762	11.47443	-650.74420	771.18719	10.00265	-627.82446	-730.91394	9.68623	483.57016	683.41937	7.15284	589.24060	-3.47949	1310.26172	-959.81311	
1796	17.950	-799.44446	11.35911	-650.54010	771.21527	9.88886	-627.87189	-730.86053	9.65737	483.63260	683.56958	7.14016	589.24207	-3.38280	1310.19006	-959.75311	
1797	17.960	-799.23828	11.38982	-650.42218	771.31317	9.90312	-627.82751	-730.84528	9.62117	483.82056	683.61584	7.16833	589.23633	-3.29879	1310.14893	-959.71582	
1798	17.970	-799.20892	11.38456	-650.44891	771.49969	9.86414	-627.78174	-730.79486	9.74658	483.68933	683.82257	7.13802	589.11346	-3.08017	1310.14087	-959.58051	
1799	17.980	-799.30219	11.40054	-650.59552	771.55365	9.90432	-627.73840	-730.62811	9.79295	483.44153	683.59283	7.23847	589.17004	-3.15892	1310.16589	-959.55762	
1800	17.990	-799.39777	11.43138	-650.69958	771.47900	9.85546	-627.78821	-730.64264	9.74199	483.42267	683.77539	7.20137	589.05206	-3.24466	1310.09839	-959.66321	
1801	18.000	-799.38287	11.29401	-650.65747	771.37903	9.77637	-627.84857	-730.70795	9.73079	483.49881	683.61163	7.21548	589.16730	-3.35238	1310.01404	-959.71924	
1802	18.010	-799.34943	11.18749	-650.52429	771.33093	9.68672	-627.87756	-730.72247	9.69678	483.51321	683.85028	7.21568	589.05621	-3.30942	1309.93481	-959.78363	
1803	18.020	-799.26392	11.16637	-650.54675	771.42084	9.69890	-627.85040	-730.63617	9.75928	483.50839	683.62720	7.28411	589.10522	-3.23802	1309.93652	-959.85974	
1804	18.030	-799.25549	11.20087	-650.58508	771.54749	9.72502	-627.80408	-730.53705	9.86470	483.39755	684.06506	7.75303	588.91656	-3.13830	1309.90955	-960.00482	
1805	18.040	-799.31201	11.18259	-650.67426	771.53375	9.68121	-627.85828	-730.50842	9.90718	483.36996	683.99994	7.52731	589.06573	-3.21876	1309.86682	-960.28851	
1806	18.050	-799.29645	11.09360	-650.73083	771.47168	9.52498	-627.94611	-730.56335	9.90206	483.35629	683.94263	7.55812	589.02356	-3.14900	1309.65710	-960.53119	
1807	18.060	-799.26044	11.01173	-650.69360	771.49658	9.46031	-627.93079	-730.57532	9.90808	483.36505	683.83582	7.45607	588.98090	-3.21090	1309.49841	-960.84204	
1808	18.070	-799.56836	11.03709	-650.27264	771.48608	9.36619	-627.95801	-730.52417	9.90538	483.32471	683.85663	7.49299	588.95569	-3.23814	1309.29944	-961.25604	
1809	18.080	-799.51904	10.98870	-650.32703	771.54822	9.28480	-627.96826	-730.34448	10.01815	483.31790	684.04053	7.75097	588.97302	-3.16290	1309.26929	-961.45648	
1810	18.090	-799.57220	11.01165	-650.30243	771.62396	9.27173	-627.93909	-730.31781	10.12355	483.31866	684.08691	7.75902	588.90222	-3.15168	1309.25110	-961.65948	
1811	18.100	-799.51239	10.91886	-650.38959	771.62799	9.19042	-627.92487	-730.32513	10.12572	483.27133	684.07599	7.84650	588.87378	-3.07907	1309.09937	-961.79242	
1812	18.110	-799.47504	10.87708	-650.36218	771.57831	8.99097	-627.99463	-730.34888	10.13387	483.30960	684.08496	7.85522	588.85919	-3.03471	1308.92493	-961.95819	
1813	18.120	-799.52399	10.92954	-650.30542	771.52557	8.97260	-628.00745	-730.35657	10.12235	483.28763	684.05951	7.93294	588.85669	-2.98494	1308.76392	-962.06311	
1814	18.130	-799.47961	10.91303	-650.33722	771.57513	8.96716	-627.98389	-730.28094	10.25781	483.26907	684.05438	7.99512	588.83765	-3.05075	1308.63501	-962.28577	
1815	18.140	-799.45441	10.82842	-650.38391	771.59802	8.64845	-628.10724	-730.25372	10.30444	483.16617	684.01807	8.10484	588.83997	-3.10823	1308.63684	-962.52448	
1816	18.150	-799.13269	10.54756	-650.75513	771.58856	8.37843	-628.15936	-730.27533	10.37046	483.07654	684.03082	8.19714	588.77539	-3.11619	1308.42566	-962.56287	
1817	18.160	-799.04980	10.42481	-650.78546	771.56201	8.39180	-628.18262	-730.27820	10.40271	483.09958	683.95984	8.17061	588.76343	-3.02416	1308.11829	-962.60852	
1818	18.170	-799.05670	10.38424	-650.77472	771.54669	8.35076	-628.16754	-730.34167	10.46525	483.12018	683.86444	8.22339	588.72314	-2.95627	1307.87354	-962.69733	
1819	18.180	-799.05151	10.39875	-650.80756	771.63751	8.15444	-628.18640	-730.06470	10.50611	482.98599	683.85150	8.33932	588.70355	-2.91222	1307.76306	-962.76208	
1820	18.190	-799.11810	10.33335	-650.89917	771.66815	8.10450	-628.20380	-730.14307	10.77431	482.87973	683.96991	8.55965	588.64758	-3.02500	1307.68274	-963.02362	
1821	18.200	-799.10565	10.13258	-650.96991	771.77643	8.04338	-628.19019	-730.37683	10.95854	482.81027	683.99176	8.67395	588.56934	-3.11439	1307.62048	-963.37531	
1822	18.210	-799.31610	9.99215	-651.32593	771.72272	7.87812	-628.26917	-730.38586	10.99202	482.79831	683.93268	8.72299	588.56732	-3.00664	1307.38037	-963.66229	
1823	18.220	-799.15729	9.69825	-651.33905	771.69238	7.63381	-628.26654	-730.61255	11.51044	482.71442	683.88690	8.68388	588.58875	-3.12613	1307.06165	-964.08704	
1824	18.230	-799.14862	9.73535	-651.32794	771.63599	7.55171	-628.31262	-730.59332	11.51545	482.79785	684.09064	8.72862	588.51630	-3.08565	1306.87964	-964.66376	
